<svg width="31" height="35" viewBox="0 0 31 35" fill="none" xmlns="http://www.w3.org/2000/svg">
<path d="M0 0.5V27.6462C0 28.7654 0.449214 29.8388 1.24882 30.6302C2.04842 31.4215 3.1329 31.8661 4.26371 31.8661H23.7007C24.8315 31.8661 25.916 31.4215 26.7156 30.6302C27.5152 29.8388 27.9644 28.7654 27.9644 27.6462V4.7199C27.9644 3.60072 27.5152 2.52735 26.7156 1.73597C25.916 0.944582 24.8315 0.5 23.7007 0.5H6.54136" fill="white"/>
<path opacity="0.5" d="M17.3692 11.6024L13.4961 9.78654L9.62305 11.6024V1.91846H17.3692V11.6024Z" fill="#FFCC66"/>
<path d="M16.9375 13.0262L13.7906 11.5505C13.7153 11.5156 13.6331 11.4974 13.5499 11.4974C13.4667 11.4974 13.3846 11.5156 13.3092 11.5505L10.1623 13.0262C10.0784 13.0669 9.98532 13.0857 9.89195 13.081C9.79858 13.0762 9.70798 13.0479 9.62869 12.9989C9.54941 12.9499 9.48406 12.8816 9.43882 12.8007C9.39358 12.7197 9.36993 12.6286 9.37012 12.5361V3.50007C9.37012 3.35566 9.42808 3.21714 9.53125 3.11502C9.63443 3.01291 9.77436 2.95557 9.92027 2.95557H17.1741C17.32 2.95557 17.4599 3.01291 17.5631 3.11502C17.6663 3.21714 17.7242 3.35566 17.7242 3.50007V12.5361C17.724 12.6279 17.7003 12.7181 17.6553 12.7984C17.6104 12.8787 17.5456 12.9465 17.4671 12.9954C17.3886 13.0443 17.2989 13.0728 17.2063 13.0781C17.1137 13.0835 17.0213 13.0656 16.9375 13.0262Z" stroke="#494949" stroke-width="1.375" stroke-miterlimit="10"/>
<path d="M2.52246 2.94746V29.3886C2.52756 30.4834 2.97172 31.5315 3.75732 32.3024C4.54291 33.0733 5.60564 33.5039 6.7119 33.4995H25.8106C26.9168 33.5039 27.9796 33.0733 28.7652 32.3024C29.5508 31.5315 29.9949 30.4834 30 29.3886V7.0639C29.9975 6.52189 29.8871 5.98569 29.6752 5.48589C29.4633 4.9861 29.154 4.53248 28.765 4.15099C28.376 3.7695 27.9148 3.46759 27.4079 3.26248C26.901 3.05738 26.3582 2.95312 25.8106 2.95563L16.4964 2.87939" stroke="#494949" stroke-width="1.375" stroke-miterlimit="10" stroke-linecap="round"/>
<path d="M9.62305 20.4072H23.9079" stroke="#4D2C19" stroke-width="1.375" stroke-miterlimit="10" stroke-linecap="round"/>
<path d="M9.62305 23.6743H21.4734" stroke="#4D2C19" stroke-width="1.375" stroke-miterlimit="10" stroke-linecap="round"/>
<path d="M9.62305 26.9414H18.1725" stroke="#4D2C19" stroke-width="1.375" stroke-miterlimit="10" stroke-linecap="round"/>
</svg>
