<svg width="20" height="35" viewBox="0 0 20 35" fill="none" xmlns="http://www.w3.org/2000/svg">
<path opacity="0.5" d="M10.0493 10.6934L9.20713 10.9868L5.52441 1.94293L5.95577 1.79327C6.31256 1.66696 6.6908 1.61233 7.06876 1.63251C7.44671 1.65268 7.81696 1.74726 8.15828 1.91083C8.49961 2.0744 8.80528 2.30373 9.05778 2.58569C9.31028 2.86765 9.50463 3.19669 9.62969 3.55392L11.2583 8.16389C11.4323 8.65969 11.4027 9.20421 11.1761 9.67828C10.9495 10.1523 10.5444 10.5174 10.0493 10.6934Z" fill="#FF9C4F"/>
<path opacity="0.5" d="M17.2183 31.9147L16.379 32.2082L12.6963 23.1614L13.1276 23.0088C13.4845 22.8829 13.8626 22.8285 14.2405 22.8489C14.6183 22.8693 14.9884 22.9639 15.3296 23.1274C15.6709 23.2909 15.9765 23.5201 16.2291 23.8019C16.4816 24.0836 16.6762 24.4124 16.8016 24.7694L18.4361 29.3823C18.5224 29.6286 18.5594 29.8894 18.545 30.15C18.5305 30.4105 18.4649 30.6656 18.3518 30.9008C18.2387 31.136 18.0804 31.3466 17.8859 31.5205C17.6914 31.6945 17.4645 31.8285 17.2183 31.9147Z" fill="#FF9C4F"/>
<path d="M8.32962 9.54575L7.48743 9.83919C6.7669 10.0931 6.17668 10.6227 5.84652 11.3116C5.51636 12.0006 5.47329 12.7924 5.72677 13.5131L8.03911 20.0598C8.16482 20.4169 8.35966 20.7457 8.61251 21.0275C8.86536 21.3093 9.17125 21.5385 9.51271 21.702C9.85417 21.8655 10.2245 21.9601 10.6026 21.9804C10.9806 22.0008 11.3589 21.9464 11.716 21.8204L12.5758 21.527C12.8193 21.441 13.0774 21.4038 13.3353 21.4176C13.5932 21.4314 13.8459 21.4958 14.0789 21.6073C14.3119 21.7187 14.5206 21.875 14.6932 22.0672C14.8658 22.2593 14.9988 22.4836 15.0847 22.7272L17.1858 28.6752C17.2718 28.9178 17.3091 29.1749 17.2956 29.4319C17.2821 29.6889 17.2181 29.9408 17.1071 30.173C16.9962 30.4052 16.8406 30.6133 16.6491 30.7853C16.4577 30.9573 16.2342 31.0898 15.9914 31.1754L13.1186 32.1907C12.6264 32.3667 12.0954 32.4051 11.583 32.3016C11.0705 32.1982 10.596 31.9569 10.2106 31.6038C6.41296 28.1027 3.52863 23.7265 1.80866 18.8561C0.0886839 13.9857 -0.414775 8.76871 0.34208 3.65928C0.41966 3.14251 0.636579 2.65664 0.969535 2.25389C1.30249 1.85114 1.7389 1.54676 2.23186 1.37339L4.23607 0.663243C4.95675 0.409768 5.7486 0.452834 6.43753 0.782991C7.12646 1.11315 7.65609 1.70337 7.91 2.4239L9.53861 7.03386C9.70637 7.52746 9.6737 8.06718 9.4476 8.53693C9.22151 9.00668 8.82005 9.36894 8.32962 9.54575Z" fill="white"/>
<path d="M10.0493 10.6934L9.20713 10.9868L5.52441 1.94293L5.95577 1.79327C6.31256 1.66696 6.6908 1.61233 7.06876 1.63251C7.44671 1.65268 7.81696 1.74726 8.15828 1.91083C8.49961 2.0744 8.80528 2.30373 9.05778 2.58569C9.31028 2.86765 9.50463 3.19669 9.62969 3.55392L11.2583 8.16389C11.4323 8.65969 11.4027 9.20421 11.1761 9.67828C10.9495 10.1523 10.5444 10.5174 10.0493 10.6934Z" stroke="#4D2C19" stroke-width="1.46722" stroke-miterlimit="10"/>
<path d="M17.7143 32.317L14.8415 33.3323C14.3498 33.5084 13.8192 33.5469 13.3073 33.4434C12.7953 33.34 12.3213 33.0986 11.9364 32.7455C8.13559 29.2467 5.24886 24.8709 3.52817 19.9999C1.80748 15.1289 1.30514 9.91076 2.06498 4.80096C2.14194 4.28396 2.35862 3.79782 2.69167 3.39496C3.02471 2.99211 3.46146 2.68784 3.95476 2.51503L5.52762 1.95752L9.2074 11.0073C8.85016 11.1323 8.52114 11.3267 8.23918 11.5792C7.95722 11.8317 7.72787 12.1374 7.5643 12.4787C7.40073 12.82 7.30614 13.1902 7.28597 13.5682C7.2658 13.9461 7.32042 14.3244 7.44673 14.6812L9.75908 21.2279C9.88414 21.5851 10.0785 21.9141 10.331 22.1961C10.5835 22.478 10.8892 22.7074 11.2305 22.8709C11.5718 23.0345 11.9421 23.1291 12.32 23.1493C12.698 23.1695 13.0762 23.1148 13.433 22.9885L14.2928 22.6951C14.5365 22.6091 14.7948 22.5721 15.0529 22.5861C15.3109 22.6 15.5637 22.6647 15.7967 22.7765C16.0297 22.8882 16.2384 23.0448 16.4109 23.2373C16.5833 23.4298 16.7162 23.6544 16.8017 23.8982L18.9028 29.8433C19.0679 30.3291 19.0359 30.8603 18.8137 31.3228C18.5915 31.7854 18.1968 32.1423 17.7143 32.317Z" stroke="#4D2C19" stroke-width="1.46722" stroke-miterlimit="10"/>
<path d="M12.9863 23.4785L16.8216 32.6251" stroke="#4D2C19" stroke-width="1.46722" stroke-miterlimit="10"/>
</svg>
