<svg width="16" height="10" viewBox="0 0 16 10" fill="none" xmlns="http://www.w3.org/2000/svg">
<path d="M8.02252 9.49992C7.71046 9.50358 7.4094 9.38755 7.18411 9.17678L0.35406 2.49512C0.242557 2.38732 0.153902 2.25915 0.093154 2.11791C0.0324063 1.97667 0.000757242 1.82514 1.34231e-05 1.67196C-0.000730395 1.51878 0.0294457 1.36696 0.088819 1.22517C0.148192 1.08337 0.235599 0.954383 0.346051 0.845557C0.456502 0.736732 0.587834 0.650206 0.732549 0.590917C0.877263 0.531628 1.03253 0.500739 1.18947 0.500013C1.34642 0.499287 1.50197 0.528739 1.64726 0.586686C1.79254 0.644633 1.92471 0.729941 2.03621 0.83774L8.02252 6.70113L14.0088 0.83774C14.2353 0.637125 14.5322 0.529252 14.838 0.536478C15.1437 0.543705 15.4349 0.665477 15.6512 0.876555C15.8675 1.08763 15.9922 1.37183 15.9997 1.67026C16.0071 1.96868 15.8965 2.25844 15.691 2.47949L8.86092 9.17678C8.63563 9.38755 8.33457 9.50358 8.02252 9.49992Z" fill="#F6841F"/>
</svg>
